<svg  xmlns="http://www.w3.org/2000/svg" xmlns:xlink="http://www.w3.org/1999/xlink" width="950" height="300" viewBox="0 0 974 324"><path transform="translate(0 100)" d="M50.4883,12.0117Q48.0957,12.0117 46.4355,10.5469Q44.7754,9.08203 44.7754,7.32422Q45.4102,3.07617 45.4102,0.390625L45.5078,-24.8047L25,-23.877L25.1953,-21.4844Q25.1953,-18.7012 22.7051,-18.7012Q21.3867,-18.7012 19.2383,-19.7021Q17.0898,-20.7031 17.0898,-23.1934L17.0898,-24.0234Q17.2852,-25.5859 17.2852,-27.002L15.2832,-51.5137Q15.0879,-54.4922 13.9404,-56.3477Q12.793,-58.2031 12.793,-59.082Q12.793,-60.4004 14.7949,-60.4004Q16.3086,-60.4004 21.582,-58.3008L45.7031,-59.8145L45.8008,-76.416Q45.8008,-78.418 45.0439,-79.8584Q44.2871,-81.2988 44.2871,-82.0801Q44.2871,-83.3984 45.7031,-83.3984Q46.4844,-83.3984 48.1934,-83.1055Q53.6133,-82.0801 53.6133,-78.8086L53.5156,-60.2051L82.0801,-61.9141Q85.9863,-61.9141 87.207,-58.7891Q87.5977,-57.7148 87.5977,-57.0801Q87.5977,-56.2988 87.207,-55.6396Q86.8164,-54.9805 83.8867,-33.1055Q86.6699,-29.8828 86.6699,-28.6133Q86.6699,-27.002 85.2783,-26.7578Q83.8867,-26.5137 53.2715,-25.0977L53.0762,8.88672Q53.0762,12.0117 50.4883,12.0117ZM53.2715,-32.0801L76.6113,-33.2031L78.8086,-54.5898L53.5156,-53.0762L53.2715,-32.0801ZM24.4141,-30.8105L45.6055,-31.7871L45.7031,-52.6855L22.7051,-51.3184L24.4141,-30.8105Z"></path><path transform="translate(100 100)" d="M89.6973,9.42383Q89.3066,9.42383 88.5742,9.17969Q67.6758,-0.78125 50.3906,-17.6758Q42.9688,-10.0098 33.667,-4.00391Q24.3652,2.00195 16.7236,5.29785Q9.08203,8.59375 6.68945,8.59375Q4.88281,8.59375 4.88281,7.2998Q4.88281,6.00586 7.08008,4.88281Q18.5059,-1.2207 28.7842,-8.71582Q39.0625,-16.2109 45.166,-23.0957Q36.2793,-33.2031 26.6602,-52.8809L14.9902,-52.1973Q13.0859,-52.1973 11.8896,-52.9053Q10.6934,-53.6133 9.375,-55.7129Q8.30078,-57.4219 8.30078,-58.4961Q8.30078,-59.8145 9.76562,-59.8145Q12.3047,-59.2773 14.8926,-59.2773Q15.8691,-59.2773 53.9062,-61.6211Q53.7598,-61.7188 53.5645,-61.9141Q48.0957,-67.4805 39.5996,-73.3887Q37.9883,-74.5117 37.9883,-75.5859Q37.9883,-76.416 39.0869,-78.0029Q40.1855,-79.5898 41.5039,-79.5898Q42.8711,-79.5898 47.4854,-76.5381Q52.0996,-73.4863 56.0791,-69.9951Q60.0586,-66.5039 60.0586,-65.0879Q60.0586,-63.8184 58.5938,-62.207Q58.3984,-62.0117 58.3008,-61.8164Q68.6035,-62.4023 81.3965,-63.1836Q83.9844,-63.3789 86.2793,-64.0137Q86.6699,-64.1113 87.3047,-64.1113Q88.6719,-64.1113 90.1855,-63.1592Q91.6992,-62.207 92.749,-60.9131Q93.7988,-59.6191 93.7988,-58.7891Q93.7988,-56.8848 91.4062,-56.5918L73.3887,-55.5176Q70.2637,-47.3145 65.332,-38.5498Q60.4004,-29.7852 55.3711,-23.4863Q73.0957,-6.5918 94.4824,2.00195Q96.2891,2.68555 96.2891,3.80859Q96.2891,4.49219 95.1416,5.83496Q93.9941,7.17773 92.4805,8.30078Q90.9668,9.42383 89.6973,9.42383ZM50.0977,-28.9062Q58.9844,-40.7227 63.9648,-54.9805L34.668,-53.418Q41.7969,-38.3789 50.0977,-28.9062Z"></path><path transform="translate(200 100)" d="M81.0059,9.7168Q76.709,9.7168 67.7246,1.80664Q62.793,-2.49023 62.793,-4.19922Q62.793,-5.51758 64.3066,-5.51758Q65.2832,-5.51758 69.9951,-3.24707Q74.707,-0.976562 78.125,-0.195312L78.7109,-67.1875L21.4844,-63.623L21.4844,6.00586Q21.4844,9.27734 18.8965,9.27734Q18.7012,9.27734 17.3096,8.88672Q15.918,8.49609 14.5508,7.2998Q13.1836,6.10352 13.1836,4.39453Q13.1836,2.97852 13.5498,1.34277Q13.916,-0.292969 14.0137,-63.916Q14.0137,-67.4805 13.208,-68.8477Q12.4023,-70.2148 12.4023,-71.2891Q12.4023,-72.7051 14.502,-72.7051Q16.0156,-72.7051 21.2891,-70.4102L80.4199,-74.2188Q86.8164,-74.2188 86.8164,-69.8242L86.2793,-67.9199L85.5957,0.390625L85.8887,4.10156Q85.8887,6.20117 84.3506,7.95898Q82.8125,9.7168 81.0059,9.7168ZM43.5059,-0.390625Q41.8945,-0.390625 41.8945,-1.80664Q41.8945,-3.07617 43.4082,-5.07812Q53.3203,-17.3828 58.8867,-35.6934Q53.418,-43.3105 50.708,-46.4111Q47.998,-49.5117 47.998,-50.415Q47.998,-51.3184 49.3408,-52.5146Q50.6836,-53.7109 51.4893,-53.7109Q52.2949,-53.7109 53.9062,-52.3438Q55.5176,-50.9766 61.1816,-43.7988Q62.9883,-51.416 63.623,-59.082Q63.623,-60.6934 63.3545,-61.4502Q63.0859,-62.207 63.0859,-62.793Q63.0859,-63.916 64.3066,-63.916Q64.8926,-63.916 66.4062,-63.4766Q71.0938,-62.207 71.0938,-59.7168Q71.0938,-56.4941 69.6045,-49.3896Q68.1152,-42.2852 66.3086,-37.1094Q76.9043,-22.9004 76.9043,-20.8008Q76.9043,-19.4824 75.415,-18.1396Q73.9258,-16.7969 72.6074,-16.7969Q71.1914,-16.7969 69.9219,-18.9941Q68.4082,-22.0215 63.3789,-29.2969Q60.2051,-21.1914 56.0059,-14.502Q51.8066,-7.8125 48.3154,-4.10156Q44.8242,-0.390625 43.5059,-0.390625ZM23.6816,-6.5918Q22.2168,-6.5918 22.2168,-8.10547Q22.2168,-9.17969 23.291,-10.8887Q29.8828,-20.6055 34.9121,-34.5215Q30.4199,-41.6016 25.8789,-47.1191Q25.5859,-47.6074 25.293,-48.0469Q25,-48.4863 25,-49.3896Q25,-50.293 26.3916,-51.3428Q27.7832,-52.3926 28.6133,-52.3926Q30.5176,-52.3926 37.4023,-42.2852Q39.502,-49.3164 40.4785,-57.7148Q40.4785,-59.082 40.1855,-60.0342Q39.8926,-60.9863 39.8926,-61.2793Q39.8926,-62.5977 41.5039,-62.5977Q42.4805,-62.5977 43.8965,-62.207Q47.7051,-60.9863 47.7051,-57.9102Q45.9961,-46.4844 41.9922,-35.498Q50.6836,-22.7051 50.6836,-21.1914Q50.6836,-19.4824 49.1455,-18.1885Q47.6074,-16.8945 46.3867,-16.8945Q45.0195,-16.8945 43.7988,-19.2871Q41.6016,-23.4863 38.916,-27.9785Q34.082,-16.9922 27.5879,-9.81445Q24.8047,-6.5918 23.6816,-6.5918Z"></path><path transform="translate(300 100)" d="M50.5859,10.6934Q48.291,10.6934 43.1396,7.49512Q37.9883,4.29688 33.3984,0.537109Q28.8086,-3.22266 28.8086,-4.6875Q28.8086,-5.81055 30.127,-5.81055Q31.1035,-5.81055 33.2031,-4.78516Q39.209,-1.70898 43.7988,-0.0488281Q48.3887,1.61133 49.0234,1.61133Q48.9258,1.61133 48.9258,1.51367Q49.707,-3.71094 49.707,-8.98438Q49.707,-14.9902 48.8281,-20.8984L12.0117,-19.3848Q9.7168,-19.3848 8.69141,-20.6055Q6.00586,-24.2188 6.00586,-25.6836Q6.00586,-26.9043 7.12891,-26.9043Q7.51953,-26.9043 7.8125,-26.8066Q9.81445,-26.2207 12.0117,-26.2207L47.1191,-27.7832Q46.1914,-30.9082 44.4824,-34.1797Q43.7988,-35.5957 43.7988,-36.5234Q43.7988,-39.502 48.291,-39.502Q49.8047,-39.502 50.9277,-37.3047Q59.5215,-43.2129 62.4023,-46.6797L31.2012,-44.1895Q28.9062,-44.1895 27.9297,-45.2148Q24.707,-48.3887 24.707,-50.4883Q24.707,-51.8066 26.0254,-51.8066Q26.5137,-51.8066 26.8066,-51.709Q28.9062,-51.2207 30.5176,-51.2207L68.2129,-54.0039Q69.8242,-54.0039 71.2158,-53.1494Q72.6074,-52.2949 73.5107,-51.1475Q74.4141,-50 74.4141,-49.2188Q74.4141,-47.9004 73.2178,-46.9971Q72.0215,-46.0938 71.7285,-45.8984Q62.5,-36.6211 53.8086,-30.9082L54.6875,-28.0762L83.3984,-29.3945Q86.084,-29.5898 87.6953,-30.1758Q88.4277,-30.4199 88.8184,-30.4199Q89.6973,-30.4199 91.2598,-29.5166Q92.8223,-28.6133 94.0674,-27.2461Q95.3125,-25.8789 95.3125,-24.8047Q95.3125,-22.998 92.0898,-22.8027L56.2988,-21.1914Q57.2266,-16.3086 57.2266,-8.39844Q57.2266,2.97852 55.3223,6.83594Q53.418,10.6934 50.5859,10.6934ZM13.8184,-44.5801Q13.3301,-44.6777 12.207,-45.1904Q11.084,-45.7031 10.0342,-46.5576Q8.98438,-47.4121 8.98438,-48.584Q8.98438,-49.1211 9.52148,-50.0977Q14.7949,-60.1074 18.1152,-70.1172Q18.7988,-72.5098 20.7031,-72.5098Q21.3867,-72.5098 22.6562,-72.0459Q23.9258,-71.582 24.6094,-70.9961Q25.293,-70.4102 25.293,-69.3848Q25.293,-68.7988 24.707,-66.8945L50.5859,-68.4082Q44.6289,-73.1934 40.8203,-75.7812Q39.209,-76.9043 39.209,-78.0762Q39.209,-79.1992 40.3076,-80.6885Q41.4062,-82.1777 42.8223,-82.1777Q44.2871,-82.1777 55.5176,-74.6094Q59.2285,-72.1191 59.6191,-70.2148Q59.6191,-69.1895 59.4238,-68.9941L86.6211,-70.5078Q89.502,-70.5078 91.1621,-69.165Q92.8223,-67.8223 92.8223,-66.4062Q92.8223,-65.4785 91.9189,-64.5508Q91.0156,-63.623 90.8203,-63.2812Q90.0879,-62.1094 87.7441,-58.5938Q85.4004,-55.0781 82.6416,-51.7822Q79.8828,-48.4863 78.3203,-48.4863Q76.9043,-48.4863 76.9043,-50Q76.9043,-51.2207 77.9297,-52.7832Q81.0059,-58.3008 82.7148,-63.4766L22.3145,-60.2051Q19.9219,-53.7109 18.3105,-50.2441Q16.6992,-46.7773 15.7959,-45.6787Q14.8926,-44.5801 13.8184,-44.5801Z"></path><path transform="translate(400 100)" d="M68.2129,10.4004Q67.9199,10.4004 66.4551,9.91211Q64.9902,9.42383 63.5986,8.20312Q62.207,6.98242 62.207,5.51758Q62.207,4.19922 62.6465,2.39258Q63.0859,0.585938 63.0859,-2.09961L63.1836,-42.3828L48.584,-41.6016Q48.0957,-41.5039 46.875,-41.5039Q43.5059,-41.5039 41.4551,-42.8467Q39.4043,-44.1895 38.8184,-48.291Q38.8184,-49.4141 39.6973,-49.4141Q39.9902,-49.4141 41.04,-48.9502Q42.0898,-48.4863 44.3848,-48.4863Q45.7031,-48.4863 63.1836,-49.4141L63.1836,-74.9023Q63.1836,-77.5879 62.0117,-78.8086Q61.377,-79.4922 61.377,-80.1758Q61.377,-81.5918 63.3789,-81.5918Q64.7949,-81.5918 66.9922,-80.8838Q69.1895,-80.1758 69.8975,-79.4922Q70.6055,-78.8086 70.6055,-77.2949L70.6055,-49.8047L85.4004,-50.5859Q88.7207,-50.8789 89.5996,-51.2451Q90.4785,-51.6113 91.0156,-51.6113Q91.6016,-51.6113 93.0176,-50.5859Q96.6797,-47.8027 96.6797,-45.8984Q96.6797,-44.2871 93.8965,-43.9941L70.6055,-42.6758L70.6055,7.17773Q70.6055,10.4004 68.2129,10.4004ZM33.5938,-56.0059Q32.0801,-56.0059 29.9805,-58.6914Q24.5117,-65.7227 18.4082,-71.0938Q16.9922,-72.3145 16.9922,-73.291Q16.9922,-74.1211 17.9932,-75.5127Q18.9941,-76.9043 20.4102,-76.9043Q21.582,-76.9043 23.584,-75.3906Q25.5859,-73.877 28.1006,-71.6797Q30.6152,-69.4824 32.9102,-67.1875Q35.2051,-64.8926 36.8408,-63.0371Q38.4766,-61.1816 38.4766,-60.1074Q38.4766,-58.8867 36.7432,-57.4463Q35.0098,-56.0059 33.5938,-56.0059ZM25.1953,1.9043Q23.7793,1.9043 22.583,0.65918Q21.3867,-0.585938 21.3867,-1.70898Q22.3145,-6.00586 22.998,-13.7207L24.1211,-41.6992L13.3789,-40.7227Q12.6953,-40.5762 11.084,-40.5762Q8.10547,-40.5762 6.20117,-42.7002Q4.29688,-44.8242 4.29688,-45.9961Q4.29688,-47.6074 5.61523,-47.6074Q8.20312,-47.2168 9.81445,-47.2168L28.1738,-49.1211Q29.1992,-49.1211 31.0547,-47.9004Q32.9102,-46.6797 32.9102,-45.4102Q32.9102,-44.1895 31.4941,-42.6758L30.2734,-10.791Q35.4004,-13.916 40.8203,-17.9199Q43.0176,-19.5801 44.2871,-19.5801Q45.4102,-19.5801 45.6055,-18.5059Q45.6055,-15.2832 35.4004,-6.20117Q31.8848,-3.41797 29.2969,-0.976562Q26.2207,1.80664 25.1953,1.9043Z"></path><path transform="translate(500 100)" d="M85.1074,11.1816Q83.3984,11.1816 81.25,9.83887Q79.1016,8.49609 76.5625,6.54297Q74.0234,4.58984 71.8262,2.44141Q69.6289,0.292969 68.0664,-1.46484Q66.5039,-3.22266 66.5039,-4.00391Q66.5039,-5.17578 68.0176,-5.17578Q68.9941,-5.17578 73.5596,-2.83203Q78.125,-0.488281 82.4219,1.2207L82.4219,-74.8047Q82.4219,-76.8066 81.4697,-78.1982Q80.5176,-79.5898 80.5176,-80.5176Q80.5176,-81.6895 82.5195,-81.6895Q83.8867,-81.6895 86.3037,-80.7861Q88.7207,-79.8828 89.4043,-79.1504Q90.0879,-78.418 90.0879,-77.0996Q90.0879,1.9043 90.2832,5.32227Q90.2832,7.32422 88.5986,9.25293Q86.9141,11.1816 85.1074,11.1816ZM69.7266,-12.3047Q67.3828,-12.3047 65.7471,-13.7939Q64.1113,-15.2832 64.1113,-16.9922Q64.1113,-17.9199 64.4043,-19.165Q64.6973,-20.4102 64.9902,-56.8848Q64.9902,-59.082 63.8184,-61.084Q63.4277,-61.9141 63.4277,-62.3047Q63.4277,-63.7207 65.1855,-63.7207Q66.4062,-63.7207 68.6523,-62.915Q70.8984,-62.1094 71.46,-61.3037Q72.0215,-60.498 72.0215,-59.1797L71.9238,-14.9902Q71.9238,-12.3047 69.7266,-12.3047ZM53.2227,8.10547Q51.416,8.10547 48.2178,6.44531Q45.0195,4.78516 41.2109,0.585938Q37.4023,-3.61328 33.8867,-10.498Q27.2949,-3.51562 17.9199,2.58789Q9.42383,8.00781 7.42188,8.00781Q6.00586,8.00781 6.00586,6.88477Q6.00586,5.71289 7.61719,4.39453Q22.6074,-7.08008 30.8105,-16.7969Q26.5137,-25.6836 23.1934,-43.2129Q13.916,-41.6992 12.793,-41.6992Q10.1074,-41.6992 7.91016,-45.9961L7.71484,-46.6797Q7.71484,-48.0957 9.32617,-48.0957L10.0098,-48.0957Q12.207,-48.0957 22.2168,-49.707Q20.6055,-59.7168 20.2148,-72.4121Q20.1172,-75 18.2129,-76.416Q17.3828,-76.9043 17.3828,-77.6855Q17.3828,-78.8086 20.6055,-78.9062Q27.1973,-78.9062 27.1973,-75.293Q27.6855,-61.377 29.1016,-50.7812Q50.9277,-54.4922 51.9287,-54.9561Q52.9297,-55.4199 53.9062,-55.5176Q54.7852,-55.5176 56.0059,-54.5898Q58.6914,-52.4902 58.6914,-51.2207Q58.6914,-49.1211 55.6152,-48.6816L30.127,-44.2871Q31.7871,-35.0098 35.8887,-23.4863Q39.9902,-29.0039 42.3096,-33.8135Q44.6289,-38.623 44.6289,-39.9902L44.6289,-41.6992Q44.7266,-43.7988 46.2891,-43.9941Q46.9238,-43.9941 48.3887,-43.1152Q52.5879,-40.8203 52.5879,-37.8906Q52.4902,-37.1094 50.5859,-33.6914Q45.6055,-24.3164 38.916,-16.1133Q43.4082,-6.98242 50.8301,-0.78125Q50.9277,-0.683594 51.123,-0.683594Q52.5879,-0.683594 56.2012,-15.918Q56.8848,-20.5078 58.8867,-20.5078Q60.8887,-20.5078 60.8887,-16.4062Q60.3027,-5.81055 58.1055,2.29492Q57.4219,4.88281 56.3232,6.49414Q55.2246,8.10547 53.2227,8.10547ZM46.582,-58.2031Q45.4102,-58.2031 42.7979,-61.8408Q40.1855,-65.4785 34.3262,-70.7031Q32.8125,-72.0215 32.8125,-73.2178Q32.8125,-74.4141 34.2041,-75.5615Q35.5957,-76.709 36.5234,-76.709Q37.3047,-76.709 39.917,-74.707Q42.5293,-72.7051 46.7285,-68.3105Q50.9277,-63.916 50.9277,-62.5Q50.9277,-60.8887 49.3164,-59.5459Q47.7051,-58.2031 46.582,-58.2031Z"></path><path transform="translate(0 200)" d="M26.2695,1.70898Q24.6094,1.70898 22.6074,0.756836Q20.6055,-0.195312 20.6055,-1.80664L20.8008,-10.6934L20.8008,-62.3047Q10.5957,-61.7188 6.39648,-60.9863Q4.49219,-60.9863 3.44238,-63.0371Q2.39258,-65.0879 2.39258,-66.6992Q2.39258,-69.0918 4.49219,-69.0918Q5.17578,-69.0918 7.03125,-68.9941Q8.88672,-68.8965 10.8887,-68.8965Q12.207,-68.8965 36.4746,-70.6055L44.2871,-71.3867Q46.0938,-71.3867 46.9971,-69.3359Q47.9004,-67.2852 47.9004,-65.7227Q47.9004,-63.2812 45.8984,-63.2812Q40.1855,-63.623 38.7695,-63.623L28.9062,-62.9883Q29.0039,-7.42188 29.1504,-4.56543Q29.2969,-1.70898 29.2969,-0Q29.2969,1.70898 26.2695,1.70898Z"></path><path transform="translate(50 200)" d="M42.0898,1.70898Q40.4297,1.70898 38.4766,0.805664Q36.5234,-0.0976562 36.5234,-1.70898L36.7188,-8.39844L36.7188,-29.2969Q36.7188,-35.1074 35.3516,-38.4033Q33.9844,-41.6992 30.2246,-41.6992Q23.584,-41.6992 19.1895,-36.377Q14.9902,-31.1035 14.502,-22.9004Q14.1113,-18.7012 14.0137,-11.5234Q14.0137,-5.51758 14.1113,-2.29492L14.209,0.195312Q14.209,1.70898 11.6211,1.70898Q9.91211,1.70898 8.00781,0.805664Q6.10352,-0.0976562 6.10352,-1.70898L6.20117,-8.78906Q6.20117,-60.0098 6.15234,-62.1094Q6.10352,-64.209 6.05469,-66.4551Q6.00586,-68.7012 6.00586,-69.6777Q6.00586,-71.2891 8.59375,-71.2891Q10.3027,-71.2891 12.2559,-70.3857Q14.209,-69.4824 14.209,-67.9199Q14.0137,-54.6875 14.0137,-40.918Q15.2832,-43.2129 20.0928,-46.167Q24.9023,-49.1211 30.2246,-49.1211Q38.8184,-49.1211 42.0898,-42.3828Q44.3848,-37.5977 44.3848,-29.6875Q44.3848,-11.8164 44.7266,0.195312Q44.7266,1.70898 42.0898,1.70898Z"></path><path transform="translate(100 200)" d="M14.9902,-25.7812Q21.4844,-25.7812 25.9521,-26.6357Q30.4199,-27.4902 33.2764,-28.3936Q36.1328,-29.2969 36.9629,-30.4443Q37.793,-31.5918 37.793,-34.082Q37.793,-42.1875 29.6875,-42.1875Q23.9258,-42.1875 19.5557,-36.499Q15.1855,-30.8105 14.209,-25.7812L14.9902,-25.7812ZM22.998,2.39258Q18.0176,2.39258 14.1113,-0.292969Q10.2051,-2.97852 7.95898,-7.88574Q5.71289,-12.793 5.71289,-20.7031Q3.80859,-22.3145 3.80859,-24.1211Q3.80859,-25.9766 6.39648,-25.9766Q7.71484,-33.3008 13.916,-41.0156Q20.8008,-49.2188 29.6875,-49.2188Q35.6934,-49.2188 39.2578,-46.9482Q42.8223,-44.6777 44.2139,-41.1865Q45.6055,-37.6953 45.6055,-33.9844Q45.6055,-30.6152 45.1172,-28.5156Q43.7012,-22.9004 26.6113,-19.9219Q20.8984,-18.9941 13.4277,-18.9941Q13.4277,-12.207 16.2109,-8.44727Q18.9941,-4.6875 22.998,-4.6875Q33.9844,-4.6875 41.2109,-12.793Q43.0176,-14.5996 44.0918,-14.5996Q45.8984,-14.5996 45.8984,-12.793Q45.8984,-11.8164 44.5312,-9.42383Q41.7969,-4.00391 33.3008,0.390625Q28.9062,2.39258 22.998,2.39258Z"></path><path transform="translate(150 200)" d=""></path><path transform="translate(200 200)" d="M13.8184,-37.207Q39.502,-39.1113 39.502,-54.1016Q39.502,-58.6914 36.0596,-61.4502Q32.6172,-64.209 25.1953,-64.209Q19.0918,-64.209 13.623,-62.4023L13.623,-37.207L13.8184,-37.207ZM11.2305,1.70898Q9.52148,1.70898 7.51953,0.805664Q5.51758,-0.0976562 5.51758,-1.70898Q5.51758,-2.88086 5.61523,-5.83496Q5.71289,-8.78906 5.71289,-61.1816Q4.6875,-61.1816 3.19824,-63.1836Q1.70898,-65.1855 1.70898,-66.6016Q1.70898,-68.7012 17.7246,-71.2891Q20.4102,-71.6797 25.3906,-71.6797Q47.6074,-71.6797 47.6074,-54.6875Q47.6074,-37.0117 30.3223,-33.0078Q23.3887,-31.3965 14.8926,-31.3965Q13.5254,-31.3965 13.5254,-31.2012L13.623,-31.1035Q13.623,-8.10547 13.7695,-4.8584Q13.916,-1.61133 13.916,0.0976562Q13.916,1.70898 11.2305,1.70898Z"></path><path transform="translate(250 200)" d="M18.0176,-42.9199Q22.1191,-49.2188 32.0312,-49.2188Q38.2324,-49.2188 42.334,-45.7031Q44.1406,-44.0918 44.1406,-42.5781Q44.1406,-40.8203 42.8223,-38.8184Q41.5039,-36.8164 39.9414,-36.8164Q38.916,-36.8164 38.0371,-38.0859Q37.0117,-39.7949 35.0586,-40.6494Q33.1055,-41.5039 31.7383,-41.5039Q27.7344,-41.5039 24.3164,-39.0137Q17.8223,-34.2773 17.8223,-20.1172Q17.7246,-16.3086 17.7246,-10.5957Q17.7246,-7.51953 17.9688,-4.61426Q18.2129,-1.70898 18.2129,-0Q18.2129,1.61133 15.625,1.61133Q13.916,1.61133 11.8164,0.756836Q9.7168,-0.0976562 9.7168,-1.80664L9.91211,-8.10547Q9.91211,-37.793 9.81445,-39.7949Q9.61914,-45.4102 9.61914,-47.4121Q9.81445,-49.0234 12.207,-49.0234Q13.916,-49.0234 16.0156,-48.1689Q18.1152,-47.3145 18.1152,-45.6055Q18.1152,-43.6035 18.0176,-42.9199Z"></path><path transform="translate(300 200)" d="M23.6328,-4.88281Q31.7871,-4.88281 36.2305,-14.3066Q38.2324,-18.8965 38.2324,-24.5117Q38.2324,-32.7148 35.4248,-37.3535Q32.6172,-41.9922 27.0996,-41.9922Q20.6055,-41.9922 16.1133,-35.2539Q11.6211,-28.5156 11.6211,-20.8008Q11.6211,-4.88281 23.6328,-4.88281ZM23.6328,2.39258Q14.1113,2.39258 8.91113,-3.90625Q3.71094,-10.2051 3.71094,-20.7031Q3.71094,-25.0977 5.05371,-29.4922Q6.39648,-33.8867 8.25195,-37.5488Q10.1074,-41.2109 12.1094,-43.6035Q14.1113,-45.9961 15.5273,-45.9961Q17.0898,-45.9961 17.334,-45.7031Q21.1914,-49.2188 27.7344,-49.2188Q38.623,-49.2188 43.7988,-37.5977Q45.9961,-32.3242 45.9961,-24.5117Q45.9961,-14.7949 40.5273,-6.39648Q34.2285,2.39258 23.6328,2.39258Z"></path><path transform="translate(350 200)" d="M20.0684,18.1152Q9.47266,18.1152 5.07812,8.49609Q4.78516,7.91016 4.78516,7.61719Q4.78516,6.10352 6.17676,4.15039Q7.56836,2.19727 9.47266,2.19727Q11.5723,2.19727 11.9629,3.80859Q13.1836,7.91016 14.9902,9.35059Q16.7969,10.791 20.0684,10.791Q26.9043,10.791 30.6641,3.71094Q32.373,0.0976562 32.373,-5.07812L32.373,-41.9922Q28.4668,-41.6016 23.6816,-41.6016Q18.8965,-41.6016 17.8711,-41.5039Q15.7715,-41.5039 14.9902,-43.7012Q14.209,-45.8984 14.209,-47.4121Q14.209,-49.707 16.5039,-49.707Q19.1895,-49.1211 22.9004,-49.1211Q33.2031,-49.1211 35.9863,-50.0977Q38.8672,-50.0977 40.1855,-46.582Q40.6738,-45.5078 40.6738,-44.9219Q40.6738,-44.0918 40.4297,-43.457Q40.1855,-42.8223 39.9902,-4.98047Q39.9902,9.17969 30.2734,15.2832Q25.6836,18.1152 20.0684,18.1152ZM35.5957,-58.3984Q33.3984,-58.3984 31.7871,-60.5957Q30.1758,-62.793 30.1758,-64.9902Q30.1758,-67.0898 31.5186,-68.75Q32.8613,-70.4102 35.5957,-70.4102Q37.793,-70.4102 39.3311,-68.1641Q40.8691,-65.918 40.8691,-63.623Q40.8691,-61.6211 39.5264,-60.0098Q38.1836,-58.3984 35.5957,-58.3984Z"></path><path transform="translate(400 200)" d="M14.9902,-25.7812Q21.4844,-25.7812 25.9521,-26.6357Q30.4199,-27.4902 33.2764,-28.3936Q36.1328,-29.2969 36.9629,-30.4443Q37.793,-31.5918 37.793,-34.082Q37.793,-42.1875 29.6875,-42.1875Q23.9258,-42.1875 19.5557,-36.499Q15.1855,-30.8105 14.209,-25.7812L14.9902,-25.7812ZM22.998,2.39258Q18.0176,2.39258 14.1113,-0.292969Q10.2051,-2.97852 7.95898,-7.88574Q5.71289,-12.793 5.71289,-20.7031Q3.80859,-22.3145 3.80859,-24.1211Q3.80859,-25.9766 6.39648,-25.9766Q7.71484,-33.3008 13.916,-41.0156Q20.8008,-49.2188 29.6875,-49.2188Q35.6934,-49.2188 39.2578,-46.9482Q42.8223,-44.6777 44.2139,-41.1865Q45.6055,-37.6953 45.6055,-33.9844Q45.6055,-30.6152 45.1172,-28.5156Q43.7012,-22.9004 26.6113,-19.9219Q20.8984,-18.9941 13.4277,-18.9941Q13.4277,-12.207 16.2109,-8.44727Q18.9941,-4.6875 22.998,-4.6875Q33.9844,-4.6875 41.2109,-12.793Q43.0176,-14.5996 44.0918,-14.5996Q45.8984,-14.5996 45.8984,-12.793Q45.8984,-11.8164 44.5312,-9.42383Q41.7969,-4.00391 33.3008,0.390625Q28.9062,2.39258 22.998,2.39258Z"></path><path transform="translate(450 200)" d="M23.7305,2.39258Q18.7012,2.39258 14.502,-0.195312Q10.3027,-2.7832 7.8125,-7.73926Q5.32227,-12.6953 5.32227,-19.3848Q5.32227,-31.1035 12.8418,-40.2832Q20.7031,-49.2188 29.4434,-49.2188Q36.5234,-49.2188 40.4297,-45.0195Q43.3105,-41.9922 43.3105,-40.0879Q43.3105,-38.3789 41.7725,-36.6455Q40.2344,-34.9121 38.623,-34.9121Q37.3047,-34.9121 36.7188,-36.2793Q34.7168,-42.0898 29.6387,-42.0898Q24.6094,-42.0898 19.043,-35.6934Q13.3301,-28.8086 13.3301,-19.9219Q13.3301,-14.6973 14.9658,-11.3037Q16.6016,-7.91016 19.0674,-6.25Q21.5332,-4.58984 23.7305,-4.58984Q32.6172,-4.58984 41.2109,-14.3066Q42.8223,-16.1133 44.2383,-16.1133Q45.8008,-16.1133 45.8008,-14.3066Q45.8008,-13.7207 44.5068,-11.0596Q43.2129,-8.39844 40.5762,-5.34668Q37.9395,-2.29492 33.7891,0.0488281Q29.6387,2.39258 23.7305,2.39258Z"></path><path transform="translate(500 200)" d="M28.0762,2.39258Q22.168,2.39258 19.5312,-0.90332Q16.8945,-4.19922 16.8945,-10.9863L16.8945,-41.8945Q9.66797,-41.8945 7.86133,-41.6016Q5.07812,-41.6016 5.07812,-46.0938Q5.07812,-49.1211 7.4707,-49.1211Q10.498,-48.877 16.8945,-48.877L16.8945,-55.9082Q16.6992,-61.5234 16.6992,-63.4766Q16.6992,-65.0879 18.8965,-65.0879Q20.6543,-65.0879 22.8271,-64.3555Q25,-63.623 25,-61.7188Q24.7559,-56.2988 24.6582,-48.877Q38.2812,-48.877 42.1875,-49.2188Q43.7988,-49.2188 44.4336,-47.6074Q45.0684,-45.9961 45.0684,-44.5801Q45.0684,-41.6992 42.8711,-41.6992Q40.8691,-41.6992 38.9648,-41.7969Q37.0605,-41.8945 24.6582,-41.8945L24.6582,-10.791Q24.6582,-7.17773 25.4639,-6.17676Q26.2695,-5.17578 29.1992,-5.17578Q33.5938,-5.17578 40.7715,-9.27734Q42.5781,-10.5957 43.457,-10.5957Q44.6777,-10.5957 44.6777,-8.88672Q44.6777,-6.10352 39.0625,-2.00195Q33.0566,2.39258 28.0762,2.39258Z"></path><path transform="translate(550 200)" d=""></path><path transform="translate(600 200)" d="M6.88477,-40.918Q6.88477,-64.8926 6.78711,-66.2109Q6.5918,-67.4805 6.5918,-68.5059Q6.5918,-70.5078 8.59375,-70.5078Q10.3027,-70.5078 13.6719,-69.1895Q36.084,-70.7031 38.0859,-70.9961Q40.6738,-71.3867 41.6016,-71.3867Q43.4082,-71.3867 44.458,-69.3848Q45.5078,-67.3828 45.5078,-65.5762Q45.5078,-63.4766 43.4082,-63.4766L37.0117,-63.4766Q35.791,-63.4766 14.8926,-62.1094L14.8926,-41.0156Q31.4941,-42.2852 33.0078,-42.4805Q35.6934,-42.9199 36.4746,-42.9199Q38.2812,-42.9199 39.3311,-40.918Q40.3809,-38.916 40.3809,-37.1094Q40.3809,-35.0098 38.2812,-35.0098Q30.7129,-35.0098 14.8926,-33.8867Q14.8926,-14.8926 15.0879,-0.0976562Q15.0879,1.51367 12.4023,1.51367Q10.6934,1.51367 8.74023,0.610352Q6.78711,-0.292969 6.78711,-1.9043Q6.88477,-8.10547 6.88477,-34.1797Q6.00586,-34.8145 5.24902,-36.4502Q4.49219,-38.0859 4.49219,-39.3066Q4.58984,-41.0156 6.49414,-41.0156Q6.78711,-40.918 6.88477,-40.918Z"></path><path transform="translate(650 200)" d="M23.6328,-4.88281Q31.7871,-4.88281 36.2305,-14.3066Q38.2324,-18.8965 38.2324,-24.5117Q38.2324,-32.7148 35.4248,-37.3535Q32.6172,-41.9922 27.0996,-41.9922Q20.6055,-41.9922 16.1133,-35.2539Q11.6211,-28.5156 11.6211,-20.8008Q11.6211,-4.88281 23.6328,-4.88281ZM23.6328,2.39258Q14.1113,2.39258 8.91113,-3.90625Q3.71094,-10.2051 3.71094,-20.7031Q3.71094,-25.0977 5.05371,-29.4922Q6.39648,-33.8867 8.25195,-37.5488Q10.1074,-41.2109 12.1094,-43.6035Q14.1113,-45.9961 15.5273,-45.9961Q17.0898,-45.9961 17.334,-45.7031Q21.1914,-49.2188 27.7344,-49.2188Q38.623,-49.2188 43.7988,-37.5977Q45.9961,-32.3242 45.9961,-24.5117Q45.9961,-14.7949 40.5273,-6.39648Q34.2285,2.39258 23.6328,2.39258Z"></path><path transform="translate(700 200)" d="M18.0176,-42.9199Q22.1191,-49.2188 32.0312,-49.2188Q38.2324,-49.2188 42.334,-45.7031Q44.1406,-44.0918 44.1406,-42.5781Q44.1406,-40.8203 42.8223,-38.8184Q41.5039,-36.8164 39.9414,-36.8164Q38.916,-36.8164 38.0371,-38.0859Q37.0117,-39.7949 35.0586,-40.6494Q33.1055,-41.5039 31.7383,-41.5039Q27.7344,-41.5039 24.3164,-39.0137Q17.8223,-34.2773 17.8223,-20.1172Q17.7246,-16.3086 17.7246,-10.5957Q17.7246,-7.51953 17.9688,-4.61426Q18.2129,-1.70898 18.2129,-0Q18.2129,1.61133 15.625,1.61133Q13.916,1.61133 11.8164,0.756836Q9.7168,-0.0976562 9.7168,-1.80664L9.91211,-8.10547Q9.91211,-37.793 9.81445,-39.7949Q9.61914,-45.4102 9.61914,-47.4121Q9.81445,-49.0234 12.207,-49.0234Q13.916,-49.0234 16.0156,-48.1689Q18.1152,-47.3145 18.1152,-45.6055Q18.1152,-43.6035 18.0176,-42.9199Z"></path><path transform="translate(750 200)" d=""></path><path transform="translate(800 200)" d="M35.2051,-20.2148Q36.8164,-40.8203 38.8184,-57.7148Q39.6973,-64.0137 39.6973,-69.0918Q39.9902,-71.1914 42.7246,-71.1914Q44.5312,-71.1914 46.4111,-70.1416Q48.291,-69.0918 48.291,-67.0898Q45.6055,-55.0781 40.5273,-0.585938Q40.332,2.19727 37.0117,2.19727Q34.6191,2.19727 32.3242,0.292969Q30.0293,-1.61133 29.3945,-4.49219Q26.416,-37.4023 24.707,-50.7812L23.6328,-39.4043Q20.2148,-4.98047 20.1172,-0.683594Q19.8242,2.09961 16.6016,2.09961Q14.209,2.09961 11.8652,0.292969Q9.52148,-1.51367 9.22852,-4.49219Q4.39453,-63.3789 1.70898,-68.8965Q1.70898,-71.0938 4.6875,-71.0938Q6.49414,-71.0938 8.54492,-70.1416Q10.5957,-69.1895 10.8887,-67.8223Q10.9863,-66.9922 10.9863,-66.2354Q10.9863,-65.4785 11.1084,-64.7949Q11.2305,-64.1113 11.2305,-62.207Q12.793,-46.9238 14.7949,-21.582Q16.7969,-42.3828 18.7988,-60.1074Q19.2871,-63.4766 19.2871,-64.9414Q19.2871,-66.4062 19.4092,-67.4072Q19.5312,-68.4082 20.874,-68.9453Q22.2168,-69.4824 23.8281,-69.4824Q25.8301,-69.4824 27.6611,-68.75Q29.4922,-68.0176 29.7852,-66.7969Q29.7852,-66.4062 29.9316,-66.3086L30.127,-62.4023Q33.5938,-37.207 35.2051,-20.2148Z"></path><path transform="translate(850 200)" d="M14.9902,-25.7812Q21.4844,-25.7812 25.9521,-26.6357Q30.4199,-27.4902 33.2764,-28.3936Q36.1328,-29.2969 36.9629,-30.4443Q37.793,-31.5918 37.793,-34.082Q37.793,-42.1875 29.6875,-42.1875Q23.9258,-42.1875 19.5557,-36.499Q15.1855,-30.8105 14.209,-25.7812L14.9902,-25.7812ZM22.998,2.39258Q18.0176,2.39258 14.1113,-0.292969Q10.2051,-2.97852 7.95898,-7.88574Q5.71289,-12.793 5.71289,-20.7031Q3.80859,-22.3145 3.80859,-24.1211Q3.80859,-25.9766 6.39648,-25.9766Q7.71484,-33.3008 13.916,-41.0156Q20.8008,-49.2188 29.6875,-49.2188Q35.6934,-49.2188 39.2578,-46.9482Q42.8223,-44.6777 44.2139,-41.1865Q45.6055,-37.6953 45.6055,-33.9844Q45.6055,-30.6152 45.1172,-28.5156Q43.7012,-22.9004 26.6113,-19.9219Q20.8984,-18.9941 13.4277,-18.9941Q13.4277,-12.207 16.2109,-8.44727Q18.9941,-4.6875 22.998,-4.6875Q33.9844,-4.6875 41.2109,-12.793Q43.0176,-14.5996 44.0918,-14.5996Q45.8984,-14.5996 45.8984,-12.793Q45.8984,-11.8164 44.5312,-9.42383Q41.7969,-4.00391 33.3008,0.390625Q28.9062,2.39258 22.998,2.39258Z"></path><path transform="translate(900 200)" d="M13.3301,-10.8887Q14.8438,-10.6934 15.7227,-8.88672Q18.5059,-4.6875 23.0957,-4.6875Q27.4414,-4.6875 32.5195,-10.498Q37.8418,-16.8945 37.8418,-27.5879Q37.8418,-32.8125 36.5723,-35.9619Q35.3027,-39.1113 33.3496,-40.5518Q31.3965,-41.9922 29.541,-41.9922Q22.5098,-41.9922 17.334,-34.082Q15.0391,-30.3223 14.0137,-25.293Q13.3301,-21.2891 13.3301,-10.8887ZM22.8027,2.29492Q19.043,2.29492 16.0889,0.439453Q13.1348,-1.41602 12.8418,-1.9043Q12.7441,-1.51367 11.1328,-0.195312Q9.52148,1.12305 7.91016,1.12305Q5.51758,0.878906 5.51758,-1.51367Q5.51758,-2.68555 5.61523,-5.39551Q5.71289,-8.10547 5.71289,-35.0098Q5.71289,-59.082 5.41992,-69.9219Q5.61523,-71.4844 8.10547,-71.4844Q9.81445,-71.4844 11.8164,-70.5811Q13.8184,-69.6777 13.8184,-68.1152Q13.5254,-58.8867 13.5254,-40.2832Q18.2129,-49.2188 29.541,-49.2188Q36.7188,-49.2188 41.2598,-43.6523Q45.8008,-38.0859 45.8008,-27.7832Q45.8008,-19.2871 42.8223,-12.5488Q39.8438,-5.81055 34.5703,-1.75781Q29.2969,2.29492 22.8027,2.29492Z"></path></svg>