<svg  xmlns="http://www.w3.org/2000/svg" xmlns:xlink="http://www.w3.org/1999/xlink" width="950" height="300" viewBox="0 0 974 324"><path transform="translate(0 100)" d="M45.4,7.3Q46,3.1 46,0.4L46.1,-25.4L24.3,-24.5L24.6,-21.5L24.6,-21.2Q24.6,-19.3 22.7,-19.3Q21.5,-19.3 19.6,-20.2Q17.7,-21.1 17.7,-23.2L17.7,-24Q17.9,-25.6 17.9,-26.95Q17.9,-28.3 17.7,-29.7L15.9,-51.5Q15.7,-54.7 14.55,-56.55Q13.4,-58.4 13.4,-59.1Q13.4,-59.8 14.8,-59.8Q16.2,-59.8 21.5,-57.7L46.3,-59.2L46.4,-76.4Q46.4,-78.5 45.65,-79.95Q44.9,-81.4 44.9,-82.1Q44.9,-82.8 45.65,-82.8Q46.4,-82.8 48.1,-82.5Q53,-81.6 53,-78.8L52.9,-59.6L79.9,-61.2Q80.6,-61.3 81.2,-61.3L82.1,-61.3Q85.6,-61.3 86.6,-58.6Q87,-57.6 87,-57.05Q87,-56.5 86.6,-55.85Q86.2,-55.2 86.1,-54.5L83.3,-32.9Q86.1,-29.7 86.1,-28.6Q86.1,-27.5 85.1,-27.3Q84.1,-27.1 82.7,-27L52.7,-25.7L52.5,8.9Q52.5,11.4 50.5,11.4Q48.3,11.4 46.85,10.1Q45.4,8.8 45.4,7.3ZM79.5,-55.2L52.9,-53.7L52.7,-31.5L77.1,-32.6L79.5,-55.2ZM46.3,-53.3L22,-51.9L23.9,-30.2L46.2,-31.2L46.3,-53.3Z"></path><path transform="translate(100 100)" d="M9.7,-59.2Q12.2,-58.7 14.9,-58.7L16.2,-58.7L46.3,-60.5L46.2,-73Q46.2,-75.3 45.4,-76.45Q44.6,-77.6 44.6,-78.3Q44.6,-79 46.45,-79Q48.3,-79 50.65,-78.2Q53,-77.4 53,-76.1L52.9,-60.9L81.4,-62.6Q84.7,-62.9 85.75,-63.2Q86.8,-63.5 87.7,-63.5Q88.6,-63.5 89.95,-62.55Q91.3,-61.6 92.25,-60.5Q93.2,-59.4 93.2,-58.8Q93.2,-57.4 91.3,-57.2L73,-56.1Q69.8,-47.6 64.85,-38.85Q59.9,-30.1 54.6,-23.4Q72.9,-6 94.3,2.6Q95.7,3.1 95.7,3.65Q95.7,4.2 94.7,5.5Q92,8.8 89.7,8.8Q89.2,8.8 88.8,8.6Q67.9,-1.3 50.4,-18.6Q38.8,-6.5 23.5,1.4Q17.1,4.7 12.6,6.35Q8.1,8 6.8,8Q5.5,8 5.5,7.3Q5.5,6.4 7.4,5.4Q23,-3 35.4,-13Q41.6,-18.1 46,-23.1Q36.5,-34.1 27.1,-53.5L18.5,-53Q16.7,-52.8 15.1,-52.8Q13.5,-52.8 12.3,-53.3Q10.7,-54.1 9.4,-57Q9.2,-57.5 9.05,-57.8Q8.9,-58.1 8.9,-58.5Q8.9,-59.2 9.7,-59.2ZM33.8,-53.9Q41.6,-37.7 50.1,-28Q59.7,-40.5 64.9,-55.7L33.8,-53.9Z"></path><path transform="translate(200 100)" d="M85,0.4L85.3,4.1Q85.3,6 83.9,7.55Q82.5,9.1 80.95,9.1Q79.4,9.1 77.25,7.95Q75.1,6.8 72.7,5.05Q70.3,3.3 68.2,1.45Q66.1,-0.4 64.75,-1.95Q63.4,-3.5 63.4,-4.2Q63.4,-4.9 64.3,-4.9Q65.2,-4.9 69.85,-2.65Q74.5,-0.4 78.7,0.6L79.3,-67.8L20.9,-64.2L20.9,6Q20.9,8.7 18.9,8.7Q18.8,8.7 17.5,8.35Q16.2,8 15,6.9Q13.8,5.8 13.8,4.45Q13.8,3.1 14.15,1.4Q14.5,-0.3 14.5,-3.2L14.6,-63.9Q14.6,-67.7 13.8,-69.05Q13,-70.4 13,-71.25Q13,-72.1 14.45,-72.1Q15.9,-72.1 21.2,-69.8L80.4,-73.6L81.7,-73.6Q83.8,-73.6 85,-72.45Q86.2,-71.3 86.2,-69.9L85.7,-68L85,0.4ZM61.5,-42.5Q63.6,-51.3 64.2,-58.7L64.2,-59.5Q64.2,-60.8 63.95,-61.55Q63.7,-62.3 63.7,-62.8Q63.7,-63.3 64.25,-63.3Q64.8,-63.3 66.2,-62.9Q70.5,-61.7 70.5,-59.7Q70.5,-56.6 69,-49.55Q67.5,-42.5 65.6,-37L67.1,-35Q76.3,-22.7 76.3,-20.8Q76.3,-19.8 75,-18.6Q73.7,-17.4 72.6,-17.4Q71.5,-17.4 70.4,-19.3Q68.9,-22.3 63.3,-30.6Q59.7,-21.5 55.5,-14.85Q51.3,-8.2 47.9,-4.6Q44.5,-1 43.5,-1Q42.5,-1 42.5,-1.8Q42.5,-2.9 43.9,-4.7Q53.8,-17.1 59.6,-35.8Q53.9,-43.7 51.25,-46.7Q48.6,-49.7 48.6,-50.35Q48.6,-51 49.8,-52.2Q50.9,-53.1 51.5,-53.1Q52.1,-53.1 53.6,-51.85Q55.1,-50.6 61.5,-42.5ZM28.6,-51.8Q30.2,-51.8 37.6,-40.9Q40.1,-49.2 41.1,-57.5L41.1,-57.9Q41.1,-59.2 40.8,-60.15Q40.5,-61.1 40.5,-61.3Q40.5,-62 41.45,-62Q42.4,-62 43.7,-61.6Q47.1,-60.6 47.1,-58.3L47.1,-57.9Q45.4,-46.6 41.3,-35.4Q50.1,-22.5 50.1,-21.15Q50.1,-19.8 48.75,-18.65Q47.4,-17.5 46.4,-17.5Q45.4,-17.5 44.3,-19.6Q42.1,-23.8 38.8,-29.3Q33.6,-17.3 27.2,-10.2Q24.5,-7.2 23.65,-7.2Q22.8,-7.2 22.8,-8.1Q22.8,-9 23.8,-10.6Q30.4,-20.3 35.6,-34.6Q30.9,-42 26.4,-47.4Q26.1,-47.9 25.85,-48.3Q25.6,-48.7 25.6,-49.35Q25.6,-50 26.8,-50.9Q28,-51.8 28.6,-51.8Z"></path><path transform="translate(300 100)" d="M21.9,-60.8Q16.6,-47 14.9,-45.6Q14.4,-45.2 14.1,-45.2Q13.8,-45.2 12.7,-45.6Q9.6,-46.9 9.6,-48.6Q9.6,-48.9 12.45,-54.35Q15.3,-59.8 18.7,-69.9Q19.3,-71.9 20.7,-71.9Q21.3,-71.9 22.3,-71.6Q24.7,-70.7 24.7,-69.4Q24.7,-69.1 24.5,-68.3L23.8,-66.3L46.6,-67.6L46.5,-75.6Q46.5,-77.5 45.5,-78.95Q44.5,-80.4 44.5,-80.8Q44.5,-81.6 45.75,-81.6Q47,-81.6 49,-81.1Q53.2,-80 53.2,-78.2L53,-68L86.6,-69.9L87.5,-69.9Q89.5,-69.9 90.85,-68.7Q92.2,-67.5 92.2,-66.55Q92.2,-65.6 91.5,-65Q90.8,-64.4 90.55,-63.95Q90.3,-63.5 89.4,-62Q80.9,-49.1 78.3,-49.1Q77.5,-49.1 77.5,-50.05Q77.5,-51 79.5,-54.55Q81.5,-58.1 83.6,-64.1L21.9,-60.8ZM26,-51.2L29.9,-50.6L31.4,-50.6Q31.8,-50.6 32.2,-50.7L66.7,-53.3Q67.2,-53.4 67.6,-53.4L68.2,-53.4Q71.1,-53.4 73,-50.8Q73.8,-49.8 73.8,-49Q73.8,-48.2 72.8,-47.5Q71.8,-46.8 71.3,-46.3Q62.1,-37.1 53.1,-31.2L54.3,-27.5L83.4,-28.8Q86.6,-29.1 87.55,-29.45Q88.5,-29.8 89,-29.8Q89.5,-29.8 90.9,-29Q94.7,-26.6 94.7,-24.8Q94.7,-23.6 92.1,-23.4L55.6,-21.8Q56.3,-17.6 56.6,-9.2L56.6,-7.5Q56.6,7.4 52.4,9.6Q51.4,10.1 50.35,10.1Q49.3,10.1 45.15,8Q41,5.9 35.2,1.25Q29.4,-3.4 29.4,-4.7Q29.4,-5.2 30.2,-5.2Q31,-5.2 32.9,-4.3Q40.1,-0.6 44.45,0.8Q48.8,2.2 49.1,2.2Q49.4,2.2 49.85,-0.6Q50.3,-3.4 50.3,-9.55Q50.3,-15.7 49.3,-21.5L14.8,-20.1L12,-20Q10,-20 9.2,-21Q6.6,-24.5 6.6,-25.4Q6.6,-26.3 7,-26.3Q7.4,-26.3 8.55,-25.95Q9.7,-25.6 12,-25.6L12.9,-25.6L47.9,-27.2Q46.8,-31.1 45.6,-33.4Q44.4,-35.7 44.4,-36.65Q44.4,-37.6 45.55,-38.25Q46.7,-38.9 48.05,-38.9Q49.4,-38.9 50.7,-36.4Q59.7,-42.6 63.8,-47.4L34.3,-45Q32.5,-44.8 30.8,-44.8Q29.1,-44.8 27.85,-46.05Q26.6,-47.3 25.95,-48.7Q25.3,-50.1 25.3,-50.5Q25.3,-51.2 26,-51.2Z"></path><path transform="translate(400 100)" d="M24.7,-42.4L13.3,-41.3Q12.7,-41.2 12.2,-41.2L11.1,-41.2Q8.4,-41.2 6.65,-43.1Q4.9,-45 4.9,-46Q4.9,-47 5.6,-47Q8.2,-46.6 9.2,-46.6L10.5,-46.6Q10.9,-46.6 11.3,-46.7L28.2,-48.5Q29,-48.5 30.65,-47.45Q32.3,-46.4 32.3,-45.35Q32.3,-44.3 31.6,-43.7L30.9,-43L29.6,-10.6Q31.5,-11.8 37,-15.8Q42.5,-19.8 43.7,-19.85Q44.9,-19.9 44.95,-19.3Q45,-18.7 43.2,-16.8Q41.4,-14.9 35.8,-8.95Q30.2,-3 27.7,-1.55Q25.2,-0.1 24.05,0.05Q22.9,0.2 21.15,-0.9Q19.4,-2 18.05,-3.35Q16.7,-4.7 16.6,-5.3Q16.6,-5.8 18.55,-6.15Q20.5,-6.5 23.4,-7.6L24.7,-42.4ZM46.4,-42.1Q43.7,-42.1 41.85,-43.35Q40,-44.6 39.4,-48.3Q39.4,-48.8 39.65,-48.8Q39.9,-48.8 40.95,-48.35Q42,-47.9 44.4,-47.9L45.7,-47.9L63.8,-48.8L63.8,-74.9Q63.8,-77.8 62.4,-79.2Q62,-79.7 62,-80.2Q62,-81 63.35,-81Q64.7,-81 66.8,-80.35Q68.9,-79.7 69.45,-79.15Q70,-78.6 70,-77.3L70,-49.2L85.4,-50Q88.8,-50.3 89.7,-50.65Q90.6,-51 91,-51Q91.4,-51 92.6,-50.1Q96.1,-47.5 96.1,-45.9Q96.1,-44.8 93.9,-44.6L70,-43.3L70,7.2Q70,9.8 68.2,9.8Q68,9.8 66.65,9.35Q65.3,8.9 64.05,7.8Q62.8,6.7 62.8,5.5Q62.8,4.3 63.25,2.5Q63.7,0.7 63.7,-2.1L63.8,-43L48.5,-42.2Q48,-42.1 47.4,-42.1L46.4,-42.1ZM37.9,-60.1Q37.9,-59.2 36.35,-57.9Q34.8,-56.6 33.6,-56.6Q32.4,-56.6 30.5,-59.1Q24.9,-66.1 18.8,-71.5Q17.6,-72.6 17.6,-73.25Q17.6,-73.9 18.45,-75.1Q19.3,-76.3 20.35,-76.3Q21.4,-76.3 23.3,-74.85Q25.2,-73.4 27.7,-71.25Q30.2,-69.1 32.5,-66.8Q34.8,-64.5 36.35,-62.75Q37.9,-61 37.9,-60.1Z"></path><path transform="translate(500 100)" d="M89.5,1.9L89.7,5.3Q89.7,7.1 88.15,8.85Q86.6,10.6 85.1,10.6Q83.6,10.6 81.5,9.3Q79.4,8 76.9,6.05Q74.4,4.1 72.2,2Q70,-0.1 68.55,-1.75Q67.1,-3.4 67.1,-4Q67.1,-4.6 68,-4.6Q68.9,-4.6 73.35,-2.3Q77.8,-0 83,2.1L83,-74.8Q83,-77 82.05,-78.4Q81.1,-79.8 81.1,-80.45Q81.1,-81.1 82.45,-81.1Q83.8,-81.1 86.1,-80.25Q88.4,-79.4 88.95,-78.8Q89.5,-78.2 89.5,-77.1L89.5,1.9ZM65.6,-56.9Q65.6,-59.3 64.3,-61.4Q64,-62 64,-62.3Q64,-63.1 65.15,-63.1Q66.3,-63.1 68.4,-62.35Q70.5,-61.6 70.95,-60.95Q71.4,-60.3 71.4,-59.2L71.3,-15Q71.3,-12.9 69.7,-12.9Q67.6,-12.9 66.15,-14.25Q64.7,-15.6 64.7,-17L64.7,-17.5Q64.7,-17.8 65,-19.15Q65.3,-20.5 65.3,-23.6L65.6,-56.9ZM45.2,-40L45.2,-41.7Q45.3,-43.3 46.3,-43.4Q46.7,-43.4 48.1,-42.6Q52,-40.4 52,-37.9Q51.9,-37.3 50.1,-34Q45.1,-24.6 38.2,-16.2Q42.9,-6.6 50.4,-0.3Q50.7,-0.1 51.1,-0.1Q53.1,-0.1 56.6,-15L57,-16.6Q57.2,-18.3 57.8,-19.1Q58.4,-19.9 58.9,-19.9Q60.4,-19.9 60.3,-16.6L60.2,-16.2Q59.7,-5.9 57.5,2.1Q56.8,4.6 55.85,6.05Q54.9,7.5 53.2,7.5Q51.5,7.5 48.45,5.9Q45.4,4.3 41.65,0.2Q37.9,-3.9 34,-11.5Q26.9,-4 17.6,2.1Q9.2,7.4 7.4,7.4Q6.5,7.5 6.55,6.75Q6.6,6 8,4.9Q23,-6.7 31.5,-16.7Q27.1,-25.9 23.7,-43.9L15.1,-42.5Q14.1,-42.3 12.8,-42.3Q10.6,-42.2 8.5,-46.2L8.3,-46.8Q8.3,-47.5 9.2,-47.5L9.4,-47.5Q9.9,-47.4 10.3,-47.4L11.1,-47.5Q12.6,-47.5 14.4,-47.8L22.9,-49.2Q21.2,-59.8 20.8,-72.4Q20.7,-75.3 18.5,-76.9Q18,-77.2 18,-77.7Q18,-78.2 20.55,-78.25Q23.1,-78.3 24.85,-77.55Q26.6,-76.8 26.6,-75.4L26.6,-75.2Q27.1,-61.3 28.6,-50.1L49.4,-53.6Q51.1,-53.9 52.1,-54.35Q53.1,-54.8 53.85,-54.85Q54.6,-54.9 55.6,-54.1Q58.3,-52.1 58.1,-51Q58.1,-49.6 55.5,-49.3L29.4,-44.8Q31.2,-34.8 35.7,-22.2Q40.5,-28.7 42.85,-33.6Q45.2,-38.5 45.2,-40ZM48.9,-60Q47.5,-58.8 46.6,-58.8Q45.7,-58.8 43.15,-62.35Q40.6,-65.9 34.7,-71.1Q33.4,-72.3 33.4,-73.2Q33.4,-74.1 34.6,-75.1Q35.8,-76.1 36.45,-76.1Q37.1,-76.1 39.6,-74.2Q42.1,-72.3 46.2,-68Q50.3,-63.7 50.3,-62.45Q50.3,-61.2 48.9,-60Z"></path><path transform="translate(0 200)" d="M26.3,1.1Q24.8,1.1 23,0.25Q21.2,-0.6 21.2,-1.8L21.4,-10.7L21.4,-63Q10.5,-62.3 6.4,-61.6Q4.8,-61.6 3.9,-63.45Q3,-65.3 3,-66.7Q3,-68.5 4.5,-68.5Q5.2,-68.5 7.05,-68.4Q8.9,-68.3 10.9,-68.3Q12.3,-68.3 36.5,-70Q40.4,-70.3 44.3,-70.8Q45.7,-70.8 46.5,-68.95Q47.3,-67.1 47.3,-65.7Q47.3,-63.9 45.9,-63.9Q40.3,-64.2 38.8,-64.2L28.3,-63.5Q28.4,-7.4 28.55,-4.55Q28.7,-1.7 28.7,-0Q28.7,1.1 26.3,1.1Z"></path><path transform="translate(50 200)" d="M42.1,1.1Q40.5,1.1 38.8,0.3Q37.1,-0.5 37.1,-1.7L37.3,-8.4L37.3,-29.3Q37.3,-35.3 35.85,-38.8Q34.4,-42.3 30.2,-42.3Q23.3,-42.3 18.7,-36.8Q14.4,-31.3 13.9,-22.9Q13.5,-18.7 13.4,-11.6Q13.4,-5.5 13.6,-2.3L13.6,0.2Q13.6,1.1 11.6,1.1Q10.1,1.1 8.4,0.3Q6.7,-0.5 6.7,-1.7L6.8,-8.8Q6.8,-60 6.75,-62.1Q6.7,-64.2 6.65,-66.45Q6.6,-68.7 6.6,-69.7Q6.6,-70.7 8.6,-70.7Q10.1,-70.7 11.85,-69.9Q13.6,-69.1 13.6,-67.9Q13.4,-54.7 13.4,-38.6Q15.7,-42.8 20.4,-45.65Q25.1,-48.5 30.2,-48.5Q38.4,-48.5 41.6,-42.1Q43.8,-37.4 43.8,-29.7Q43.8,-9.9 43.9,-7.8L44.1,0.2Q44.1,1.1 42.1,1.1Z"></path><path transform="translate(100 200)" d="M15,-25.2Q21.6,-25.2 26.05,-26.05Q30.5,-26.9 33.5,-27.85Q36.5,-28.8 37.45,-30.1Q38.4,-31.4 38.4,-34.1Q38.4,-42.8 29.7,-42.8Q23.6,-42.8 19.15,-36.95Q14.7,-31.1 13.5,-25.2L15,-25.2ZM23,1.8Q18.2,1.8 14.45,-0.8Q10.7,-3.4 8.5,-8.2Q6.3,-13 6.3,-21Q4.4,-22.6 4.4,-24.1Q4.4,-25.4 6.4,-25.4L6.9,-25.5Q8.3,-33 14.4,-40.6Q21.1,-48.6 29.7,-48.6Q35.5,-48.6 38.9,-46.45Q42.3,-44.3 43.65,-40.9Q45,-37.5 45,-34Q45,-30.6 44.5,-28.7Q43.2,-23.4 26.5,-20.5Q20.9,-19.6 12.8,-19.6Q12.8,-12 15.75,-8.05Q18.7,-4.1 23,-4.1Q34.3,-4.1 41.7,-12.4Q43.2,-14 44.1,-14Q45.3,-14 45.3,-12.8Q45.3,-12 44,-9.7Q41.3,-4.5 33,-0.2Q28.8,1.8 23,1.8Z"></path><path transform="translate(150 200)" d=""></path><path transform="translate(200 200)" d="M13.9,-36.6Q40.1,-38.6 40.1,-54.1Q40.1,-59 36.45,-61.9Q32.8,-64.8 25.2,-64.8Q19,-64.8 13,-62.9L13,-36.6L13.9,-36.6ZM11.2,1.1Q9.6,1.1 7.85,0.3Q6.1,-0.5 6.1,-1.7Q6.1,-2.9 6.2,-5.85Q6.3,-8.8 6.3,-61.8Q5,-61.8 3.65,-63.6Q2.3,-65.4 2.3,-66.6Q2.3,-68.2 17.8,-70.7Q20.4,-71.1 25.4,-71.1Q37.2,-71.1 42.1,-66.7Q47,-62.3 47,-54.7Q47,-37.5 30.1,-33.6Q23.3,-32 14.9,-32Q13.4,-32 13,-32.2Q13,-8.1 13.15,-4.85Q13.3,-1.6 13.3,0.1Q13.3,1.1 11.2,1.1Z"></path><path transform="translate(250 200)" d="M15.6,1Q14,1 12.15,0.25Q10.3,-0.5 10.3,-1.8L10.5,-8.1Q10.5,-37.8 10.4,-39.8Q10.2,-45.4 10.2,-47.4Q10.3,-48.4 12.2,-48.4Q13.8,-48.4 15.65,-47.65Q17.5,-46.9 17.5,-45.6Q17.5,-44.6 17.35,-43.4Q17.2,-42.2 17.2,-40.5Q19.3,-43.9 23.05,-46.25Q26.8,-48.6 32,-48.6Q38,-48.6 41.9,-45.2Q43.5,-43.8 43.5,-42.6Q43.5,-41 42.35,-39.2Q41.2,-37.4 39.9,-37.4Q39.2,-37.4 38.5,-38.4Q37.4,-40.3 35.3,-41.2Q33.2,-42.1 31.7,-42.1Q27.5,-42.1 23.9,-39.5Q20.3,-36.9 18.5,-31.5Q17.2,-27.8 17.2,-20.1Q17.1,-16.3 17.1,-10.6Q17.1,-7.5 17.35,-4.6Q17.6,-1.7 17.6,-0Q17.6,1 15.6,1Z"></path><path transform="translate(300 200)" d="M23.6,-4.3Q32.2,-4.3 36.7,-14.1Q38.8,-18.7 38.8,-24.5Q38.8,-32.9 35.9,-37.75Q33,-42.6 27.1,-42.6Q20.3,-42.6 15.65,-35.65Q11,-28.7 11,-20.8Q11,-12.5 14.3,-8.4Q17.6,-4.3 23.6,-4.3ZM23.6,1.8Q14.4,1.8 9.35,-4.3Q4.3,-10.4 4.3,-20.7Q4.3,-25.1 5.6,-29.4Q6.9,-33.7 8.75,-37.3Q10.6,-40.9 12.5,-43.15Q14.4,-45.4 15.5,-45.4Q16.8,-45.4 17.1,-44.8Q21.5,-48.6 27.7,-48.6Q38.2,-48.6 43.3,-37.4Q45.4,-32.1 45.4,-24.5Q45.4,-15 40,-6.7Q33.9,1.8 23.6,1.8Z"></path><path transform="translate(350 200)" d="M35.6,-59Q33.7,-59 32.25,-61Q30.8,-63 30.8,-65Q30.8,-66.9 31.95,-68.35Q33.1,-69.8 35.6,-69.8Q37.5,-69.8 38.9,-67.75Q40.3,-65.7 40.3,-63.6Q40.3,-61.8 39.1,-60.4Q37.9,-59 35.6,-59ZM20.1,17.5Q9.9,17.5 5.6,8.2Q5.4,7.8 5.4,7.6Q5.4,6.3 6.65,4.55Q7.9,2.8 9.5,2.8Q11.1,2.8 11.4,4Q12.7,8.2 14.65,9.8Q16.6,11.4 20.1,11.4Q27.3,11.4 31.2,4Q33,0.2 33,-5.1L33,-42.7Q28.5,-42.2 23.7,-42.2Q18.9,-42.2 17.9,-42.1Q16.2,-42.1 15.5,-44.05Q14.8,-46 14.8,-47.4Q14.8,-49.1 16.4,-49.1Q19.1,-48.5 22.9,-48.5Q33.3,-48.5 36.1,-49.5Q38.5,-49.5 39.6,-46.4Q40.1,-45.4 40.1,-44.9Q40.1,-44.2 39.85,-43.55Q39.6,-42.9 39.6,-41.6L39.4,-5Q39.4,2.1 36.9,7.05Q34.4,12 29.95,14.75Q25.5,17.5 20.1,17.5Z"></path><path transform="translate(400 200)" d="M15,-25.2Q21.6,-25.2 26.05,-26.05Q30.5,-26.9 33.5,-27.85Q36.5,-28.8 37.45,-30.1Q38.4,-31.4 38.4,-34.1Q38.4,-42.8 29.7,-42.8Q23.6,-42.8 19.15,-36.95Q14.7,-31.1 13.5,-25.2L15,-25.2ZM23,1.8Q18.2,1.8 14.45,-0.8Q10.7,-3.4 8.5,-8.2Q6.3,-13 6.3,-21Q4.4,-22.6 4.4,-24.1Q4.4,-25.4 6.4,-25.4L6.9,-25.5Q8.3,-33 14.4,-40.6Q21.1,-48.6 29.7,-48.6Q35.5,-48.6 38.9,-46.45Q42.3,-44.3 43.65,-40.9Q45,-37.5 45,-34Q45,-30.6 44.5,-28.7Q43.2,-23.4 26.5,-20.5Q20.9,-19.6 12.8,-19.6Q12.8,-12 15.75,-8.05Q18.7,-4.1 23,-4.1Q34.3,-4.1 41.7,-12.4Q43.2,-14 44.1,-14Q45.3,-14 45.3,-12.8Q45.3,-12 44,-9.7Q41.3,-4.5 33,-0.2Q28.8,1.8 23,1.8Z"></path><path transform="translate(450 200)" d="M23.7,1.8Q18.9,1.8 14.85,-0.7Q10.8,-3.2 8.35,-8Q5.9,-12.8 5.9,-19.4Q5.9,-30.9 13.3,-39.9Q21,-48.6 29.4,-48.6Q36.3,-48.6 40,-44.6Q42.7,-41.7 42.7,-40.1Q42.7,-38.6 41.3,-37.05Q39.9,-35.5 38.6,-35.5Q37.7,-35.5 37.3,-36.5Q36.3,-39.4 34.6,-40.8Q32.2,-42.7 29.6,-42.7Q24.3,-42.7 18.5,-36.1Q12.7,-29 12.7,-19.9Q12.7,-14.6 14.4,-11.05Q16.1,-7.5 18.7,-5.75Q21.3,-4 23.7,-4Q32.9,-4 41.6,-13.9Q43.1,-15.5 44.2,-15.5Q45.2,-15.5 45.2,-14.3Q45.2,-13.8 43.95,-11.25Q42.7,-8.7 40.1,-5.75Q37.5,-2.8 33.45,-0.5Q29.4,1.8 23.7,1.8Z"></path><path transform="translate(500 200)" d="M28.1,1.8Q22.5,1.8 20,-1.3Q17.5,-4.4 17.5,-11L17.5,-42.5L11.1,-42.5Q9.1,-42.4 7.9,-42.2Q6.7,-42.2 6.2,-43.55Q5.7,-44.9 5.7,-46.1Q5.7,-48.5 7.5,-48.5Q10.5,-48.3 17.5,-48.3L17.5,-55.9Q17.3,-61.5 17.3,-63.5Q17.3,-64.5 18.9,-64.5Q20.6,-64.5 22.5,-63.85Q24.4,-63.2 24.4,-61.7Q24.2,-56.3 24.1,-48.3Q38.3,-48.3 42.2,-48.6Q43.4,-48.6 43.95,-47.25Q44.5,-45.9 44.5,-44.6Q44.5,-42.3 42.9,-42.3Q40.9,-42.3 39,-42.4Q37.1,-42.5 24.1,-42.5L24.1,-10.8Q24.1,-7 25.05,-5.8Q26,-4.6 29.2,-4.6Q33.8,-4.6 41.1,-8.8Q42.8,-10 43.5,-10Q44.1,-10 44.1,-8.9Q44.1,-6.4 38.8,-2.5Q32.9,1.8 28.1,1.8Z"></path><path transform="translate(550 200)" d=""></path><path transform="translate(600 200)" d="M12.4,0.9Q10.9,0.9 9.15,0.1Q7.4,-0.7 7.4,-1.9L7.5,-8.1L7.5,-34.5Q6.4,-35.2 5.75,-36.75Q5.1,-38.3 5.1,-39.3Q5.2,-40.4 6.4,-40.4Q7.1,-40.2 7.5,-40.2Q7.5,-64.9 7.35,-66.2Q7.2,-67.5 7.2,-68.5Q7.2,-69.9 8.6,-69.9Q9.6,-69.9 10.75,-69.6Q11.9,-69.3 12.8,-68.9L13.6,-68.6Q36.2,-70.1 38.2,-70.4Q40.7,-70.8 41.6,-70.8Q43,-70.8 43.95,-69Q44.9,-67.2 44.9,-65.6Q44.9,-64.1 43.4,-64.1L37,-64.1Q35.8,-64.1 14.3,-62.6L14.3,-40.3Q31.5,-41.7 33.1,-41.9Q35.7,-42.3 36.5,-42.3Q38,-42.3 38.9,-40.5Q39.8,-38.7 39.8,-37.1Q39.8,-35.6 38.3,-35.6L34.7,-35.6Q30.7,-35.6 14.3,-34.4Q14.3,-14.9 14.5,-0.1Q14.5,0.9 12.4,0.9Z"></path><path transform="translate(650 200)" d="M23.6,-4.3Q32.2,-4.3 36.7,-14.1Q38.8,-18.7 38.8,-24.5Q38.8,-32.9 35.9,-37.75Q33,-42.6 27.1,-42.6Q20.3,-42.6 15.65,-35.65Q11,-28.7 11,-20.8Q11,-12.5 14.3,-8.4Q17.6,-4.3 23.6,-4.3ZM23.6,1.8Q14.4,1.8 9.35,-4.3Q4.3,-10.4 4.3,-20.7Q4.3,-25.1 5.6,-29.4Q6.9,-33.7 8.75,-37.3Q10.6,-40.9 12.5,-43.15Q14.4,-45.4 15.5,-45.4Q16.8,-45.4 17.1,-44.8Q21.5,-48.6 27.7,-48.6Q38.2,-48.6 43.3,-37.4Q45.4,-32.1 45.4,-24.5Q45.4,-15 40,-6.7Q33.9,1.8 23.6,1.8Z"></path><path transform="translate(700 200)" d="M15.6,1Q14,1 12.15,0.25Q10.3,-0.5 10.3,-1.8L10.5,-8.1Q10.5,-37.8 10.4,-39.8Q10.2,-45.4 10.2,-47.4Q10.3,-48.4 12.2,-48.4Q13.8,-48.4 15.65,-47.65Q17.5,-46.9 17.5,-45.6Q17.5,-44.6 17.35,-43.4Q17.2,-42.2 17.2,-40.5Q19.3,-43.9 23.05,-46.25Q26.8,-48.6 32,-48.6Q38,-48.6 41.9,-45.2Q43.5,-43.8 43.5,-42.6Q43.5,-41 42.35,-39.2Q41.2,-37.4 39.9,-37.4Q39.2,-37.4 38.5,-38.4Q37.4,-40.3 35.3,-41.2Q33.2,-42.1 31.7,-42.1Q27.5,-42.1 23.9,-39.5Q20.3,-36.9 18.5,-31.5Q17.2,-27.8 17.2,-20.1Q17.1,-16.3 17.1,-10.6Q17.1,-7.5 17.35,-4.6Q17.6,-1.7 17.6,-0Q17.6,1 15.6,1Z"></path><path transform="translate(750 200)" d=""></path><path transform="translate(800 200)" d="M37,1.6Q34.8,1.6 32.65,-0.15Q30.5,-1.9 30,-4.6Q27,-37.5 24.7,-55.6Q24.2,-51.6 23,-39.45Q21.8,-27.3 20.7,-15.95Q19.6,-4.6 19.5,-0.7Q19.4,0.3 18.55,0.9Q17.7,1.5 16.6,1.5Q14.4,1.5 12.25,-0.15Q10.1,-1.8 9.8,-4.6Q6.6,-44.1 4.1,-60.4Q2.9,-67.8 2.3,-69Q2.3,-70.5 4.7,-70.5Q6.4,-70.5 8.25,-69.65Q10.1,-68.8 10.3,-67.7Q10.4,-67 10.4,-66.25Q10.4,-65.5 10.5,-64.8Q10.6,-64.1 10.6,-62.2Q12.5,-44.4 14.8,-13.4Q14.6,-11.8 14.5,-11.8L14.5,-12Q16.9,-38 19.4,-60Q19.9,-63.5 19.9,-64.95Q19.9,-66.4 20,-67.2Q20.1,-68 21.2,-68.45Q22.3,-68.9 23.8,-68.9Q25.7,-68.9 27.35,-68.25Q29,-67.6 29.2,-66.7Q29.2,-66.3 29.3,-66.1Q29.4,-65.2 29.4,-64.4Q29.4,-63.6 29.5,-62.3Q33,-36.9 35.2,-13.7L35.6,-17.8Q37.3,-39.8 39.4,-57.6Q40.3,-64 40.3,-69.1Q40.5,-70.6 42.7,-70.6Q44.3,-70.6 46,-69.65Q47.7,-68.7 47.7,-67.2Q45,-55.2 39.9,-0.7Q39.7,1.6 37,1.6Z"></path><path transform="translate(850 200)" d="M15,-25.2Q21.6,-25.2 26.05,-26.05Q30.5,-26.9 33.5,-27.85Q36.5,-28.8 37.45,-30.1Q38.4,-31.4 38.4,-34.1Q38.4,-42.8 29.7,-42.8Q23.6,-42.8 19.15,-36.95Q14.7,-31.1 13.5,-25.2L15,-25.2ZM23,1.8Q18.2,1.8 14.45,-0.8Q10.7,-3.4 8.5,-8.2Q6.3,-13 6.3,-21Q4.4,-22.6 4.4,-24.1Q4.4,-25.4 6.4,-25.4L6.9,-25.5Q8.3,-33 14.4,-40.6Q21.1,-48.6 29.7,-48.6Q35.5,-48.6 38.9,-46.45Q42.3,-44.3 43.65,-40.9Q45,-37.5 45,-34Q45,-30.6 44.5,-28.7Q43.2,-23.4 26.5,-20.5Q20.9,-19.6 12.8,-19.6Q12.8,-12 15.75,-8.05Q18.7,-4.1 23,-4.1Q34.3,-4.1 41.7,-12.4Q43.2,-14 44.1,-14Q45.3,-14 45.3,-12.8Q45.3,-12 44,-9.7Q41.3,-4.5 33,-0.2Q28.8,1.8 23,1.8Z"></path><path transform="translate(900 200)" d="M23.1,-4.1Q27.7,-4.1 33,-10.1Q38.4,-16.7 38.4,-27.6Q38.4,-32.9 37.1,-36.2Q35.8,-39.5 33.7,-41.05Q31.6,-42.6 29.5,-42.6Q22.2,-42.6 16.8,-34.4Q14.4,-30.5 13.4,-25.4Q12.7,-21 12.7,-10.1L12.4,-10.1Q12.4,-10.3 13,-10.3Q14.3,-10.3 15.2,-8.6Q18.2,-4.1 23.1,-4.1ZM22.8,1.7Q19.1,1.7 16.35,-0.05Q13.6,-1.8 12.5,-3.7Q12.2,-1.8 10.75,-0.65Q9.3,0.5 7.9,0.5Q6.1,0.4 6.1,-1.5Q6.1,-2.7 6.2,-5.4Q6.3,-8.1 6.3,-35Q6.3,-59.1 6,-69.9Q6.1,-70.9 8.1,-70.9Q9.7,-70.9 11.45,-70.1Q13.2,-69.3 13.2,-68.1Q12.9,-58.9 12.9,-38Q18.6,-48.6 29.5,-48.6Q36.5,-48.6 40.85,-43.25Q45.2,-37.9 45.2,-27.8Q45.2,-19.5 42.25,-12.85Q39.3,-6.2 34.2,-2.25Q29.1,1.7 22.8,1.7Z"></path></svg>